<svg fill="none" height="24" viewBox="0 0 24 24" width="24" xmlns="http://www.w3.org/2000/svg"><g stroke="#292d32" stroke-linecap="round" stroke-linejoin="round" stroke-width="1.5"><path d="m21.6799 16.9599-3.13-7.31002c-1.06-2.48-3.01-2.58-4.32-.22l-1.89 3.41002c-.96 1.73-2.74997 1.88-3.98997.33l-.22-.28c-1.29-1.62-3.11-1.42-4.04.43l-1.72 3.45c-1.21 2.4.54 5.23 3.22 5.23h12.75997c2.6 0 4.35-2.65 3.33-5.04z"/><path d="m6.96997 8c1.65685 0 3-1.34315 3-3s-1.34315-3-3-3-3 1.34315-3 3 1.34315 3 3 3z"/></g></svg>