<?xml version="1.0" ?><svg viewBox="0 0 64 64" xmlns="http://www.w3.org/2000/svg"><title/><g id="Print"><path d="M60,54H4a1,1,0,0,1-1-1V32.38A10.38,10.38,0,0,1,13.38,22H50.63A10.38,10.38,0,0,1,61,32.38V53A1,1,0,0,1,60,54ZM5,52H59V32.38A8.39,8.39,0,0,0,50.63,24H13.38A8.39,8.39,0,0,0,5,32.38Z"/><path d="M52,24H12a1,1,0,0,1-.78-.37,1,1,0,0,1-.2-.84l4-19A1,1,0,0,1,16,3H48a1,1,0,0,1,1,.79l4,19a1,1,0,0,1-.2.84A1,1,0,0,1,52,24ZM13.23,22H50.77L47.19,5H16.81Z"/><path d="M45.68,24H18.32a1,1,0,0,1-.78-.37,1,1,0,0,1-.2-.83L20,9.8A1,1,0,0,1,21,9H43a1,1,0,0,1,1,.8l2.68,13a1,1,0,0,1-.2.83A1,1,0,0,1,45.68,24ZM19.54,22H44.46L42.19,11H21.81Z"/><path d="M52,54H12a1,1,0,0,1-1-1V39.81A7.81,7.81,0,0,1,18.81,32H45.19A7.81,7.81,0,0,1,53,39.81V53A1,1,0,0,1,52,54ZM13,52H51V39.81A5.82,5.82,0,0,0,45.19,34H18.81A5.82,5.82,0,0,0,13,39.81Z"/><path d="M59,61H4a1,1,0,0,1-.66-1.75l8-7a1,1,0,1,1,1.32,1.5L6.66,59H56.59l-5.3-5.29a1,1,0,0,1,1.42-1.42l7,7a1,1,0,0,1,.21,1.09A1,1,0,0,1,59,61Z"/><path d="M52,40.81H12a1,1,0,0,1,0-2H52a1,1,0,0,1,0,2Z"/><path d="M17,29H9a1,1,0,0,1,0-2h8a1,1,0,0,1,0,2Z"/><path d="M15,32H9a1,1,0,0,1,0-2h6a1,1,0,0,1,0,2Z"/></g></svg>