<?xml version="1.0" ?><svg data-name="Layer 1" id="Layer_1" viewBox="0 0 512 512" xmlns="http://www.w3.org/2000/svg"><title/><path d="M245.74,164.82h20.52a29.26,29.26,0,0,0,29.23-29.23V99.43a29.27,29.27,0,0,0-29.23-29.24H245.74a29.27,29.27,0,0,0-29.23,29.24v36.16A29.26,29.26,0,0,0,245.74,164.82ZM228,99.43A17.74,17.74,0,0,1,245.74,81.7h20.52A17.74,17.74,0,0,1,284,99.43v36.16a17.73,17.73,0,0,1-17.72,17.72H245.74A17.73,17.73,0,0,1,228,135.59Z"/><path d="M415.7,265.56a5.76,5.76,0,0,0,5.76-5.75V41.26a5.76,5.76,0,0,0-5.76-5.76H96.3a5.76,5.76,0,0,0-5.76,5.76V259.81a5.76,5.76,0,0,0,5.76,5.75H223.2v42.58H191.86a5.76,5.76,0,0,0,0,11.51H320.14a5.76,5.76,0,0,0,0-11.51H288.8V265.56ZM180.35,254.05V210.14l40.34-23.07,30.46,47.78a6,6,0,0,0,9.71,0l30.45-47.78,40.34,23.07v43.91H180.35ZM102.05,47H410v207H343.16V206.79a5.75,5.75,0,0,0-2.9-5l-48-27.45a5.77,5.77,0,0,0-7.71,1.91L256,221.05l-28.55-44.79a5.78,5.78,0,0,0-7.71-1.91l-48,27.45a5.75,5.75,0,0,0-2.9,5v47.26H102.05ZM277.29,308.14H234.71V265.56h42.58Z"/><path d="M151.53,337.89H50.47a16,16,0,0,0-16,16v76.26a16,16,0,0,0,16,16H79.12V465h-19a5.76,5.76,0,1,0,0,11.51h81.84a5.76,5.76,0,1,0,0-11.51h-19V446.13h28.65a16,16,0,0,0,16-16V353.87A16,16,0,0,0,151.53,337.89ZM90.63,465V413.7h20.74V465ZM156,430.13a4.48,4.48,0,0,1-4.47,4.48H122.88V407.94a5.75,5.75,0,0,0-5.76-5.75H84.88a5.75,5.75,0,0,0-5.76,5.75v26.67H50.47A4.48,4.48,0,0,1,46,430.13V353.87a4.48,4.48,0,0,1,4.47-4.47H151.53a4.48,4.48,0,0,1,4.47,4.47Z"/><path d="M306.53,337.89H205.47a16,16,0,0,0-16,16v76.26a16,16,0,0,0,16,16h28.65V465h-19a5.76,5.76,0,1,0,0,11.51h81.84a5.76,5.76,0,1,0,0-11.51h-19V446.13h28.65a16,16,0,0,0,16-16V353.87A16,16,0,0,0,306.53,337.89ZM245.63,465V413.7h20.74V465ZM311,430.13a4.48,4.48,0,0,1-4.47,4.48H277.88V407.94a5.75,5.75,0,0,0-5.76-5.75H239.88a5.75,5.75,0,0,0-5.76,5.75v26.67H205.47a4.48,4.48,0,0,1-4.47-4.48V353.87a4.48,4.48,0,0,1,4.47-4.47H306.53a4.48,4.48,0,0,1,4.47,4.47Z"/><path d="M461.53,337.89H360.47a16,16,0,0,0-16,16v76.26a16,16,0,0,0,16,16h28.65V465h-19a5.76,5.76,0,1,0,0,11.51h81.84a5.76,5.76,0,1,0,0-11.51h-19V446.13h28.65a16,16,0,0,0,16-16V353.87A16,16,0,0,0,461.53,337.89ZM400.63,465V413.7h20.74V465ZM466,430.13a4.48,4.48,0,0,1-4.47,4.48H432.88V407.94a5.75,5.75,0,0,0-5.76-5.75H394.88a5.75,5.75,0,0,0-5.76,5.75v26.67H360.47a4.48,4.48,0,0,1-4.47-4.48V353.87a4.48,4.48,0,0,1,4.47-4.47H461.53a4.48,4.48,0,0,1,4.47,4.47Z"/></svg>